<?xml version="1.0" encoding="utf-8"?>
<!-- Generator: Adobe Illustrator 23.0.1, SVG Export Plug-In . SVG Version: 6.00 Build 0)  -->
<svg version="1.1" id="Layer_1" xmlns="http://www.w3.org/2000/svg" xmlns:xlink="http://www.w3.org/1999/xlink" x="0px" y="0px"
	 viewBox="0 0 1000 1000" style="enable-background:new 0 0 1000 1000;" xml:space="preserve">
<style type="text/css">
	.st0{fill:#FFFFFF;}
</style>
<title>close</title>
<path class="st0" d="M709.8,206.6c-64.4,65.5-128.9,131.2-194.2,197.6c-8.6,8.7-22.4,8.8-31,0c-65-66-129.7-131.8-194.5-197.6
	c-8.6-8.7-22.4-8.6-30.9,0.1c-15.7,16.2-31.1,32.3-47.1,48.8c-8.5,8.8-8.3,23,0.2,31.7c63.1,64.2,127.9,130.1,193.6,197
	c8.6,8.7,8.5,22.8,0,31.6c-65.2,66.4-130.2,132.5-194.7,198.1c-8.5,8.7-8.5,22.8,0.2,31.4l47.8,47.9c8.6,8.6,22.6,8.6,31.1-0.1
	l194.2-197.3c8.6-8.7,22.4-8.7,31,0c64.7,65.8,129.2,131.4,194.2,197.5c8.6,8.7,22.5,8.8,31,0.1c16-16.2,31.7-32.2,47.6-48.3
	c8.6-8.7,8.6-22.9,0.1-31.6c-63.8-65-128.5-130.9-194.2-197.8c-8.6-8.7-8.6-22.9,0-31.6c65.2-66.4,130.1-132.5,194.5-198.2
	c8.6-8.7,8.5-22.8-0.1-31.5l-47.8-48.1C732.3,197.8,718.4,197.9,709.8,206.6L709.8,206.6z"/>
</svg>
