<?xml version="1.0" encoding="utf-8"?>
<!-- Generator: Adobe Illustrator 23.0.1, SVG Export Plug-In . SVG Version: 6.00 Build 0)  -->
<svg version="1.1" id="Layer_1" xmlns="http://www.w3.org/2000/svg" xmlns:xlink="http://www.w3.org/1999/xlink" x="0px" y="0px"
	 viewBox="0 0 91 91" style="enable-background:new 0 0 91 91;" xml:space="preserve">
<style type="text/css">
	.st0{fill:none;}
	.st1{fill:none;stroke:#ffffff;stroke-width:3;stroke-linecap:round;stroke-linejoin:round;}
</style>
<g transform="matrix(2,0,0,2,0,0)">
	<title  xmlns="http://www.w3.org/2000/svg">iconSpecial</title>
	<g>
		<g>
			<rect x="0.3" y="0.8" class="st0" width="45.3" height="45.3"/>
			<line class="st1" x1="23" y1="17" x2="23" y2="22.3"/>
			<circle fill="#ffffff" cx="23" cy="27.4" r="1.8"/>
			<path class="st1" d="M32.6,8.9H13.4c-2.9,0-5.2,2.3-5.2,5.2v14.4c0,2.9,2.3,5.2,5.2,5.2h0h5.1l2.5,2.8c1,1.1,2.7,1.2,3.8,0.2
				c0.1-0.1,0.1-0.1,0.2-0.2l2.5-2.8h5.1c2.9,0,5.2-2.3,5.2-5.2V14.1C37.9,11.2,35.5,8.9,32.6,8.9z"/>
		</g>
	</g>
</g>
</svg>
