<svg width="184" height="70" xmlns="http://www.w3.org/2000/svg" xmlns:xlink="http://www.w3.org/1999/xlink" version="1.1" x="0px" y="0px" xml:space="preserve">
    <defs id="SvgjsDefs1632"></defs>
    <g id="SvgjsG1633" featurekey="root" fill="#ffffff"></g>
    <g id="SvgjsG1635" featurekey="text" fill="#000000" transform="matrix(4.166795924452345,0,0,4.166795924452345,0,-25)">
        <path d="M1.94 13.02 q0.08 0.12 0.71 0.51 t1.47 0.83 t1.71 0.82 t1.45 0.46 q0.06 0.2 0.09 0.29 t0.04 0.14 l0.02 0.1 t0.01 0.17 q-0.26 -0.02 -0.82 -0.19 t-1.32 -0.46 t-1.66 -0.69 t-1.8 -0.86 q0 0.94 -0.03 1.85 t-0.03 1.85 q0 0.04 0.01 0.37 t0.01 0.74 l0 0.78 t-0.02 0.49 l-0.6 -0.2 q-0.02 -0.22 -0.02 -0.7 l0 -1.09 l0 -1.28 t-0.01 -1.28 t-0.03 -1.1 t-0.04 -0.71 q-0.06 -0.06 -0.19 -0.11 t-0.25 -0.13 t-0.23 -0.19 t-0.13 -0.27 q0.08 -0.16 0.34 -0.3 t0.46 -0.32 q-0.02 -0.08 -0.04 -0.47 t-0.05 -0.96 t-0.07 -1.22 t-0.06 -1.23 t-0.03 -1.02 t-0.01 -0.58 q0 -0.02 0.12 -0.08 t0.27 -0.1 t0.27 -0.06 t0.12 0.06 q0.04 1.44 0.12 2.65 t0.1 2.41 q0.16 -0.16 0.43 -0.51 t0.59 -0.79 t0.65 -0.91 t0.61 -0.88 t0.47 -0.72 t0.23 -0.39 q0.2 -0.06 0.33 -0.1 t0.22 -0.07 t0.19 -0.06 t0.28 -0.07 q-0.1 0.24 -0.27 0.53 t-0.36 0.59 t-0.38 0.59 t-0.37 0.53 q-0.02 0.04 -0.3 0.47 t-0.68 0.98 t-0.82 1.1 t-0.7 0.79 z M7.92 19.12 q0.14 0.1 0.46 -0.34 t0.62 -1.13 t0.5 -1.47 t0.12 -1.36 q0 -0.12 0.1 -0.15 t0.23 -0.03 t0.26 0.02 t0.19 0.04 q-0.04 0.44 -0.11 1.11 t-0.09 1.33 t0.05 1.2 t0.33 0.7 q0.22 0.14 0.51 -0.02 t0.56 -0.4 t0.49 -0.43 t0.28 -0.13 q-0.08 0.34 -0.34 0.66 t-0.59 0.54 t-0.7 0.31 t-0.67 -0.03 q-0.12 -0.02 -0.19 -0.23 t-0.12 -0.49 t-0.08 -0.6 t-0.07 -0.58 l-0.36 0.72 t-0.4 0.76 t-0.38 0.62 t-0.3 0.3 q-0.4 0.16 -0.62 0.07 t-0.3 -0.25 q-0.12 -0.06 -0.17 -0.41 t-0.08 -0.89 t-0.03 -1.22 l0 -1.39 t-0.02 -1.4 t-0.06 -1.27 q0.14 0 0.28 0.02 q0.12 0.02 0.24 0.05 t0.2 0.13 q0.1 0.46 0.03 1.62 t-0.11 2.8 q0 0.06 0.01 0.23 t0.04 0.37 t0.1 0.38 t0.19 0.24 z M14.280000000000001 13.7 q0.5 0.08 0.83 0.22 t0.52 0.31 t0.3 0.35 t0.21 0.34 q-0.02 0.08 -0.19 -0.02 t-0.33 -0.2 q-0.44 -0.28 -1.06 -0.34 t-1.15 0.07 t-0.85 0.45 t-0.16 0.78 t0.57 0.8 t0.91 0.61 t1 0.49 t0.82 0.44 q0.4 -0.22 0.68 -0.37 t0.5 -0.28 t0.45 -0.24 t0.53 -0.25 q0.04 -0.02 0.07 -0.02 t0 0.05 t-0.16 0.16 t-0.41 0.31 q-0.14 0.1 -0.52 0.34 t-0.82 0.52 q0.24 0.22 0.38 0.46 q0.12 0.22 0.17 0.47 t-0.09 0.51 q-0.4 0.64 -0.9 1 t-0.92 0.5 q-0.28 0.1 -0.62 0.02 t-0.54 -0.32 q-0.22 -0.32 -0.11 -0.65 t0.37 -0.64 t0.6 -0.59 t0.6 -0.5 q-0.18 -0.2 -0.7 -0.49 t-1.07 -0.64 t-0.99 -0.75 t-0.48 -0.8 q-0.08 -0.44 0.11 -0.85 t0.56 -0.72 t0.86 -0.46 t1.03 -0.07 z M14.1 20.56 q0.22 0.1 0.5 0 t0.53 -0.29 t0.44 -0.42 t0.25 -0.41 q0.06 -0.16 -0.11 -0.35 t-0.35 -0.31 q-0.22 0.16 -0.5 0.41 t-0.49 0.51 t-0.31 0.5 t0.04 0.36 z M20.58 14.04 q0.86 -0.06 1.69 -0.13 t1.73 -0.15 q0.2 0.02 0.26 0.21 t-0.16 0.23 q-0.74 0.08 -1.7 0.22 t-1.82 0.36 q0.04 0.62 0.04 1.27 t0.03 1.28 t0.12 1.22 t0.29 1.09 q0.28 0.34 0.56 0.4 t0.53 -0.03 t0.46 -0.28 t0.37 -0.37 q0.14 -0.14 0.23 0 t-0.17 0.42 q-0.12 0.14 -0.3 0.3 t-0.43 0.27 t-0.56 0.14 t-0.67 -0.07 q-0.46 -0.12 -0.68 -0.74 t-0.33 -1.45 t-0.15 -1.73 t-0.1 -1.62 q-0.88 0.08 -1.29 0.14 t-0.59 0.08 t-0.24 -0.02 t-0.22 -0.18 q0.02 -0.1 0.01 -0.19 t0 -0.15 t0.08 -0.12 t0.27 -0.1 q0.3 -0.08 0.87 -0.09 t1.11 -0.09 q-0.02 -0.64 -0.04 -1 t-0.04 -0.63 t-0.03 -0.53 t-0.01 -0.68 q0 -0.1 0.11 -0.15 t0.25 -0.06 t0.26 0.04 t0.16 0.15 q0.06 0.18 0.08 0.53 t0.03 0.74 t0.01 0.79 t-0.02 0.68 z M23.1 14 q0.38 0.02 0.84 0.11 t0.9 0.24 t0.81 0.34 t0.61 0.43 q0.24 0.22 0.28 0.67 t-0.06 0.99 t-0.31 1.11 t-0.47 1.03 t-0.56 0.76 t-0.56 0.3 q-0.44 0 -0.74 -0.21 t-0.48 -0.51 t-0.27 -0.63 t-0.11 -0.57 q-0.06 -1.06 -0.02 -1.88 t0.14 -1.36 q-0.06 -0.1 -0.12 -0.18 t-0.12 -0.15 t-0.14 -0.13 q0.08 -0.04 0.16 -0.12 q0.16 -0.12 0.22 -0.24 z M23.82 18.76 q0.06 0.08 0.16 0.17 t0.25 0.14 t0.31 0.01 t0.34 -0.22 q0.48 -0.5 0.72 -1.03 t0.31 -1 t-0.02 -0.83 t-0.29 -0.52 q-0.16 -0.1 -0.27 -0.17 t-0.28 -0.13 t-0.43 -0.13 t-0.68 -0.19 q-0.2 0.64 -0.28 1.28 t-0.07 1.17 t0.08 0.92 t0.15 0.53 z M27.2 13.26 q0 -0.18 0.1 -0.21 t0.21 0.01 t0.22 0.13 t0.15 0.13 q0.04 0.52 -0.04 1.42 t-0.08 2.24 q0.08 -0.32 0.24 -0.76 t0.37 -0.89 t0.46 -0.84 t0.49 -0.62 t0.46 -0.23 t0.4 0.34 q0.04 0.1 0.07 0.41 t0.04 0.75 t0.03 0.98 t0.06 1.1 q0.18 -0.44 0.41 -0.97 t0.49 -0.96 t0.56 -0.67 t0.64 -0.1 q0.16 0.06 0.22 0.37 t0.1 0.73 t0.09 0.89 t0.19 0.85 t0.4 0.61 t0.7 0.17 q0.24 0 0.35 0.01 t0.16 0.03 t0.04 0.06 t-0.01 0.12 q-0.74 0.38 -1.21 0.25 t-0.74 -0.56 t-0.38 -1.04 t-0.15 -1.21 q-0.04 -0.26 -0.17 -0.22 t-0.32 0.3 t-0.41 0.65 t-0.42 0.83 t-0.35 0.85 t-0.23 0.67 q-0.1 0.18 -0.32 0.1 t-0.28 -0.3 q-0.08 -0.32 -0.09 -0.79 t0 -0.95 t0.03 -0.93 t0 -0.77 t-0.08 -0.44 t-0.22 0.06 q-0.34 0.52 -0.63 1.18 t-0.51 1.37 t-0.37 1.42 t-0.19 1.29 q-0.34 0.08 -0.48 -0.09 t-0.24 -0.35 q0.04 -0.26 0.07 -1.01 t0.06 -1.71 t0.06 -1.96 t0.05 -1.74 z M36.3 14.34 q0.06 -0.02 0.34 -0.11 t0.46 -0.03 q0.58 -0.02 0.89 0.3 t0.05 1.24 q-0.38 1.02 -1.01 1.7 t-1.49 1.3 q0.2 0.52 0.6 0.58 t0.84 -0.13 t0.86 -0.51 t0.68 -0.56 q0.42 -0.36 0.67 -0.61 t0.53 -0.61 q0.06 -0.04 0.07 0.01 t-0.01 0.15 t-0.06 0.28 q-0.06 0.14 -0.12 0.25 t-0.17 0.24 t-0.29 0.31 t-0.44 0.48 q-0.3 0.28 -0.58 0.55 t-0.59 0.47 t-0.68 0.28 t-0.85 0 q-0.4 -0.14 -0.64 -0.3 t-0.37 -0.33 t-0.19 -0.31 t-0.08 -0.24 q-0.1 -0.4 -0.08 -1.08 t0.4 -1.76 q0.26 -0.56 0.56 -0.95 t0.7 -0.61 z M35.42 17.88 q0.26 -0.14 0.61 -0.39 t0.66 -0.58 t0.54 -0.73 t0.25 -0.84 q0.06 -0.3 -0.02 -0.42 q-0.04 -0.06 -0.08 -0.06 q-0.34 -0.16 -0.68 0.1 t-0.62 0.74 t-0.47 1.07 t-0.19 1.11 z M40.04 13.68 q-0.02 -0.18 0.19 -0.09 t0.43 0.19 q0.08 0.46 0.12 0.73 t0.06 0.51 t0.04 0.52 t0.06 0.74 q0.18 -0.46 0.44 -0.85 t0.67 -0.67 t0.98 -0.41 t1.37 -0.09 q0 0.16 -0.11 0.27 t-0.51 0.17 q-0.58 0.1 -1.01 0.39 t-0.74 0.67 t-0.5 0.81 t-0.31 0.79 q-0.02 0.18 -0.05 0.51 t-0.04 0.7 t-0.02 0.72 t0.03 0.55 q0.02 0.1 -0.09 0.15 t-0.25 0.07 t-0.26 -0.02 t-0.12 -0.14 q0.04 -2.06 -0.11 -3.55 t-0.27 -2.67 z"></path>
    </g>
</svg>
